<?xml version="1.0" encoding="utf-8"?>
<!-- Generator: Adobe Illustrator 26.0.1, SVG Export Plug-In . SVG Version: 6.00 Build 0)  -->
<svg version="1.1" id="Layer_1" xmlns="http://www.w3.org/2000/svg" xmlns:xlink="http://www.w3.org/1999/xlink" x="0px" y="0px"
	 viewBox="0 0 1000 1000" style="enable-background:new 0 0 1000 1000;" xml:space="preserve">
<style type="text/css">
	.st0{fill:url(#SVGID_1_);}
	.st1{fill:url(#SVGID_00000031893402623319887170000006313032938356001202_);}
	.st2{fill:url(#SVGID_00000125568341412032902950000010589564880345246115_);}
	.st3{fill:url(#SVGID_00000004532717587295559010000005695558275533903758_);}
	.st4{fill:url(#SVGID_00000010291165216671997460000004678901370432095416_);}
	.st5{fill:#4F42B5;}
	.st6{fill:none;stroke:url(#SVGID_00000112634240943259025760000002697333828918253713_);stroke-miterlimit:10;}
</style>
<g>
	<g>
		<linearGradient id="SVGID_1_" gradientUnits="userSpaceOnUse" x1="67.0884" y1="584.0087" x2="76.8665" y2="574.2306">
			<stop  offset="0" style="stop-color:#4F42B5"/>
			<stop  offset="1" style="stop-color:#00B2FF"/>
		</linearGradient>
		<path class="st0" d="M36.14,533.51v19.55l62.01,62.01h19.32L36.14,533.51z M38.53,539.23l73.46,73.45H99.1l-60.58-60.58V539.23z"
			/>
		
			<linearGradient id="SVGID_00000157986981052879579110000002030139126975212682_" gradientUnits="userSpaceOnUse" x1="31.2551" y1="461.6034" x2="112.8191" y2="380.0394">
			<stop  offset="0" style="stop-color:#4F42B5"/>
			<stop  offset="1" style="stop-color:#00B2FF"/>
		</linearGradient>
		<path style="fill:url(#SVGID_00000157986981052879579110000002030139126975212682_);" d="M98.15,384.93l-62.01,62.01v19.56
			l81.56-81.56H98.15z M38.53,447.89l60.58-60.58h12.88l-73.46,73.45V447.89z"/>
		
			<linearGradient id="SVGID_00000149341223546542107380000000989844325860519579_" gradientUnits="userSpaceOnUse" x1="94.8126" y1="556.4031" x2="207.3819" y2="443.8338">
			<stop  offset="0" style="stop-color:#4F42B5"/>
			<stop  offset="1" style="stop-color:#00B2FF"/>
		</linearGradient>
		<path style="fill:url(#SVGID_00000149341223546542107380000000989844325860519579_);" d="M250.79,487.24l-99.69-99.69
			L49.98,488.67c-6.44,6.44-6.44,16.46,0,22.89L151.1,612.69L250.79,513C257.94,505.84,257.94,494.16,250.79,487.24z M146.09,559.98
			l60.34-60.34l-39.59-39.59l-8.82,8.59l31.96,31.96l-49.84,49.6l-2.62,2.39c-9.3,6.92-21.94,5.96-30.29-2.15l-50.8-51.04
			l94.68-94.68l6.92,7.15c6.68,6.68,6.68,17.65,0,24.33l-63.44,63.2l41.02,40.78l8.35-8.59l-31.72-31.72l58.67-58.67
			c4.53-4.53,11.92-4.53,16.46,0l58.43,58.43l-94.68,94.68l-5.01-5.25C137.98,581.21,137.98,568.09,146.09,559.98z"/>
		
			<linearGradient id="SVGID_00000000915351035466796180000010469708122671669656_" gradientUnits="userSpaceOnUse" x1="225.3855" y1="425.8302" x2="235.1644" y2="416.0513">
			<stop  offset="0" style="stop-color:#4F42B5"/>
			<stop  offset="1" style="stop-color:#00B2FF"/>
		</linearGradient>
		<path style="fill:url(#SVGID_00000000915351035466796180000010469708122671669656_);" d="M204.28,385.17h-19.56l81.32,81.33
			v-19.32L204.28,385.17z M263.9,461.01l-73.46-73.45h12.88l60.58,60.58V461.01z"/>
		
			<linearGradient id="SVGID_00000080207267346117368950000008107213490089173678_" gradientUnits="userSpaceOnUse" x1="189.374" y1="619.961" x2="270.8186" y2="538.5163">
			<stop  offset="0" style="stop-color:#4F42B5"/>
			<stop  offset="1" style="stop-color:#00B2FF"/>
		</linearGradient>
		<path style="fill:url(#SVGID_00000080207267346117368950000008107213490089173678_);" d="M184.48,615.07h19.56l62.01-62.01v-19.32
			L184.48,615.07z M263.66,552.11l-60.58,60.58h-12.88l73.46-73.45V552.11z"/>
	</g>
	<g>
		<polygon class="st5" points="406.99,534.99 327.11,436.84 310.85,436.84 310.85,567.03 329.74,567.03 329.74,468.73 
			409.63,567.03 425.88,567.03 425.88,436.84 406.99,436.84 		"/>
		<g>
			<path class="st5" d="M520.94,434.98h-20.9l-58.52,130.2h19.04l13.47-31.58h72.45l13.62,31.58h19.66L520.94,434.98z
				 M479.91,519.97l30.34-70.9l30.65,70.9H479.91z"/>
			<path class="st5" d="M694.64,536.38l11.77,11.3c-11.92,12.54-29.57,19.35-49.7,19.35c-40.56,0-69.82-28.18-69.82-67.03
				c0-38.86,29.41-67.03,69.98-67.03c20.13,0,37.62,6.97,49.54,19.51l-11.77,11.15c-10.06-9.75-22.45-14.71-36.69-14.71
				c-30.03,0-51.86,21.52-51.86,51.09c0,29.72,21.83,51.24,51.86,51.24C672.34,551.24,684.57,546.29,694.64,536.38z"/>
			<path class="st5" d="M812.76,520.43c17.49-6.66,27.09-21.05,27.09-40.1c0-28.49-20.59-45.36-54.96-45.36h-53.1v130.2h19.04
				v-39.79h34.06c1.55,0,3.25,0,4.8-0.15l2.01-0.31l28.02,40.25h19.51l-30.19-43.19L812.76,520.43z M783.65,510.84h-32.82V450h32.82
				c23.53,0,37,11.15,37,30.34C820.65,499.69,807.18,510.84,783.65,510.84z"/>
			<polygon class="st5" points="963.86,550.31 963.86,565.18 867.87,565.18 867.87,434.98 961.22,434.98 961.22,449.84 
				886.76,449.84 886.76,491.79 952.71,491.79 952.71,506.19 886.76,506.19 886.76,550.31 			"/>
		</g>
	</g>
</g>
<linearGradient id="SVGID_00000104687134199583344430000017852445812039949983_" gradientUnits="userSpaceOnUse" x1="409.8788" y1="1220.1152" x2="1251.0417" y2="1220.1152">
	<stop  offset="0" style="stop-color:#4F42B5"/>
	<stop  offset="1" style="stop-color:#00B2FF"/>
</linearGradient>
<line style="fill:none;stroke:url(#SVGID_00000104687134199583344430000017852445812039949983_);stroke-miterlimit:10;" x1="409.88" y1="1220.12" x2="1251.04" y2="1220.12"/>
</svg>
