<?xml version="1.0" encoding="utf-8"?>
<!-- Generator: Adobe Illustrator 26.0.1, SVG Export Plug-In . SVG Version: 6.00 Build 0)  -->
<svg version="1.1" id="Layer_1" xmlns="http://www.w3.org/2000/svg" xmlns:xlink="http://www.w3.org/1999/xlink" x="0px" y="0px"
	 viewBox="0 0 1000 1000" style="enable-background:new 0 0 1000 1000;" xml:space="preserve">
<style type="text/css">
	.st0{fill:#FFFFFF;}
</style>
<g>
	<g>
		<path class="st0" d="M243.26,448.11v43.67l138.49,138.49h43.14L243.26,448.11z M248.59,460.89l164.06,164.05h-28.77L248.59,489.65
			V460.89z"/>
		<path class="st0" d="M381.75,116.27L243.26,254.76v43.68l182.17-182.17C425.43,116.27,381.75,116.27,381.75,116.27z
			 M248.59,256.89L383.88,121.6h28.77L248.59,285.65V256.89z"/>
		<path class="st0" d="M722.65,344.77L500,122.13L274.15,347.97c-14.38,14.38-14.38,36.75,0,51.13L500,624.95L722.65,402.3
			C738.63,386.32,738.63,360.22,722.65,344.77z M488.81,507.23l134.76-134.76l-88.42-88.42l-19.71,19.17l71.37,71.38L475.5,485.39
			l-5.86,5.33c-20.77,15.45-49.01,13.32-67.65-4.8L288.54,371.94L500,160.48l15.45,15.98c14.91,14.92,14.91,39.42,0,54.33
			L373.76,371.94l91.62,91.08l18.64-19.17L413.18,373l131.03-131.03c10.12-10.12,26.63-10.12,36.75,0l130.5,130.5L500,583.94
			l-11.18-11.72C470.7,554.64,470.7,525.34,488.81,507.23z"/>
		<path class="st0" d="M618.78,116.8H575.1l181.63,181.64V255.3L618.78,116.8z M751.94,286.18L587.89,122.13h28.76l135.3,135.29
			v28.76H751.94z"/>
		<path class="st0" d="M574.57,630.28h43.68l138.49-138.49v-43.14L574.57,630.28z M751.41,489.65l-135.29,135.3h-28.77L751.41,460.9
			V489.65z"/>
	</g>
	<g>
		<polygon class="st0" points="187.97,840.33 79.76,707.38 57.74,707.38 57.74,883.73 83.32,883.73 83.32,750.58 191.53,883.73 
			213.55,883.73 213.55,707.38 187.97,707.38 		"/>
		<g>
			<path class="st0" d="M342.31,704.86H314l-79.27,176.36h25.79l18.24-42.78h98.14l18.45,42.78h26.63L342.31,704.86z M286.73,819.99
				l41.1-96.04l41.52,96.04H286.73z"/>
			<path class="st0" d="M577.59,842.21l15.94,15.31c-16.15,16.99-40.05,26.21-67.31,26.21c-54.94,0-94.58-38.17-94.58-90.8
				s39.84-90.8,94.79-90.8c27.26,0,50.96,9.44,67.1,26.42l-15.94,15.1c-13.63-13.21-30.41-19.92-49.7-19.92
				c-40.68,0-70.25,29.15-70.25,69.2c0,40.26,29.57,69.41,70.25,69.41C547.39,862.35,563.96,855.64,577.59,842.21z"/>
			<path class="st0" d="M737.59,820.61c23.7-9.02,36.7-28.52,36.7-54.31c0-38.59-27.89-61.44-74.44-61.44h-71.93v176.36h25.79
				v-53.89h46.13c2.1,0,4.4,0,6.5-0.21l2.73-0.42l37.96,54.52h26.42l-40.89-58.51L737.59,820.61z M698.17,807.61h-44.46V725.2h44.46
				c31.87,0,50.12,15.1,50.12,41.1C748.29,792.52,730.04,807.61,698.17,807.61z"/>
			<polygon class="st0" points="942.26,861.09 942.26,881.22 812.24,881.22 812.24,704.86 938.69,704.86 938.69,724.99 
				837.83,724.99 837.83,781.82 927.16,781.82 927.16,801.32 837.83,801.32 837.83,861.09 			"/>
		</g>
	</g>
</g>
</svg>
