<?xml version="1.0" encoding="utf-8"?>
<!-- Generator: Adobe Illustrator 26.0.1, SVG Export Plug-In . SVG Version: 6.00 Build 0)  -->
<svg version="1.1" id="Layer_1" xmlns="http://www.w3.org/2000/svg" xmlns:xlink="http://www.w3.org/1999/xlink" x="0px" y="0px"
	 viewBox="0 0 1000 1000" style="enable-background:new 0 0 1000 1000;" xml:space="preserve">
<style type="text/css">
	.st0{fill:#FFFFFF;}
</style>
<g>
	<path class="st0" d="M88.98,619.81v69.92l221.71,221.71h69.07L88.98,619.81z M97.51,640.28l262.64,262.64H314.1L97.51,686.32
		V640.28z"/>
	<path class="st0" d="M310.69,88.55L88.98,310.27v69.92L380.62,88.55H310.69z M97.51,313.68L314.1,97.08h46.05L97.51,359.72V313.68z
		"/>
	<path class="st0" d="M856.45,454.38L500,97.94L138.44,459.5c-23.02,23.02-23.02,58.84,0,81.86L500,902.92l356.45-356.44
		C882.03,520.89,882.03,479.11,856.45,454.38z M482.09,714.46l215.74-215.74L556.28,357.17l-31.55,30.7l114.26,114.27L460.77,679.5
		l-9.38,8.53c-33.26,24.73-78.46,21.32-108.3-7.68L161.46,497.87L500,159.33l24.73,25.58c23.87,23.88,23.87,63.1,0,86.98
		L297.9,497.87l146.67,145.82l29.84-30.7L361,499.57L570.78,289.8c16.2-16.2,42.64-16.2,58.84,0l208.92,208.92L500,837.26
		l-17.9-18.76C453.1,790.36,453.1,743.45,482.09,714.46z"/>
	<path class="st0" d="M690.16,89.41h-69.92L911.02,380.2v-69.07L690.16,89.41z M903.34,360.58L640.7,97.94h46.05l216.6,216.59
		L903.34,360.58L903.34,360.58z"/>
	<path class="st0" d="M619.38,911.45h69.92l221.71-221.71v-69.07L619.38,911.45z M902.49,686.32L685.9,902.92h-46.05l262.64-262.64
		L902.49,686.32L902.49,686.32z"/>
</g>
</svg>
